<svg xmlns="http://www.w3.org/2000/svg" width="60" height="60" fill="none" viewBox="0 0 60 60"><rect width="60" height="60" fill="#fff" rx="30"/><path fill="url(#a)" fill-rule="evenodd" d="M30 6C16.718 6 6 16.718 6 30s10.718 24 24 24 24-10.718 24-24S43.282 6 30 6" clip-rule="evenodd"/><path fill="#fff" fill-rule="evenodd" d="M38.388 17.262h-1.32c-.7 0-1.32.466-1.553 1.165l-.777 2.64c-.155.545.233 1.01.777 1.01h2.796a2.42 2.42 0 0 1 2.407 2.408c0 2.641-2.174 4.816-4.815 4.816h-6.058l3.184-11.03c.155-.543-.233-1.009-.777-1.009h-3.029c-.699 0-1.32.466-1.553 1.165l-3.107 10.874h-8.777c-.699 0-1.32.466-1.553 1.165l-.777 2.64c-.155.544.233 1.01.777 1.01h8.932l-2.485 8.622c-.156.544.233 1.01.776 1.01h3.03c.698 0 1.32-.466 1.553-1.165l2.408-8.544h7.456c5.282 0 9.631-4.272 9.631-9.631.078-3.961-3.184-7.146-7.146-7.146" clip-rule="evenodd"/><defs><linearGradient id="a" x1="30" x2="30" y1="6" y2="54" gradientUnits="userSpaceOnUse"><stop stop-color="#2AE59F"/><stop offset="1" stop-color="#23C891"/></linearGradient></defs></svg>